<?xml version="1.0" encoding="utf-8"?>
<!-- Generator: Adobe Illustrator 19.0.0, SVG Export Plug-In . SVG Version: 6.00 Build 0)  -->
<svg version="1.1" id="Layer_1" xmlns="http://www.w3.org/2000/svg" xmlns:xlink="http://www.w3.org/1999/xlink" x="0px" y="0px"
	 viewBox="0 0 512 512" style="enable-background:new 0 0 512 512;" xml:space="preserve">
<style type="text/css">
	.st0{fill:#CA4638;}
	.st1{fill:#FFFFFF;}
</style>
<g id="XMLID_1_">
	<path id="XMLID_3_" class="st0" d="M25.2,0h461.6c14,0,25.2,11.2,25.2,25.2v461.6c0,14-11.2,25.2-25.2,25.2H25.2
		C11.2,512,0,500.8,0,486.8V25.2C0,11.2,11.2,0,25.2,0z"/>
	<path id="XMLID_6_" class="st1" d="M420.6,188.4c0,0-2.8-22.4-13.1-32.6c-12.1-13.1-26.1-13.1-32.6-14
		c-45.7-3.7-114.7-3.7-114.7-3.7l0,0c0,0-69,0-114.7,3.7c-6.5,0.9-20.5,0.9-32.6,14c-10.3,10.3-13.1,32.6-13.1,32.6
		s-3.7,26.1-3.7,53.2v25.2c0,26.1,3.7,53.2,3.7,53.2s2.8,22.4,13.1,32.6c12.1,13.1,28.9,13.1,36.4,14c26.1,2.8,111.9,3.7,111.9,3.7
		s69,0,114.7-3.7c6.5-0.9,20.5-0.9,32.6-14c10.3-10.3,13.1-32.6,13.1-32.6s3.7-26.1,3.7-53.2v-25.2
		C424.3,215.4,420.6,188.4,420.6,188.4z M226.6,296.6v-92.3l88.6,46.6L226.6,296.6z"/>
</g>
</svg>
