<svg width="32" height="22" viewBox="0 0 32 22" fill="none" xmlns="http://www.w3.org/2000/svg">
<path d="M25.3537 0.00157503H6.64629C2.97439 0.00157503 0 2.89175 0 6.45762V15.5424C0 19.1082 2.976 22 6.64629 22H25.3537C29.0256 22 32 19.1082 32 15.5424V6.45762C32 2.89175 29.024 0 25.3537 0V0.00157503ZM20.8592 11.441L12.1092 15.4967C12.0558 15.5215 11.9969 15.5327 11.938 15.5294C11.879 15.526 11.8218 15.5081 11.7717 15.4774C11.7216 15.4467 11.6801 15.4041 11.6511 15.3535C11.6221 15.3029 11.6065 15.246 11.6058 15.188V6.82617C11.6068 6.7677 11.6229 6.71044 11.6526 6.65973C11.6823 6.60903 11.7245 6.56652 11.7754 6.53618C11.8263 6.50583 11.8842 6.48864 11.9437 6.48619C12.0032 6.48375 12.0623 6.49613 12.1156 6.52219L20.8673 10.8299C20.9256 10.8585 20.9745 10.9026 21.0084 10.9572C21.0423 11.0118 21.0598 11.0747 21.059 11.1387C21.0582 11.2027 21.039 11.2651 21.0036 11.3189C20.9683 11.3726 20.9183 11.4139 20.8592 11.441Z" fill="#E42E21"/>
</svg>
